<svg width="32" height="32" viewBox="0 0 32 32" fill="none" xmlns="http://www.w3.org/2000/svg">
<rect width="32" height="32" rx="2" fill="#0041B3"/>
<mask id="path-2-inside-1_2046_2" fill="white">
<path d="M16.094 15.069C18.321 15.7053 20.8377 16.3832 21.0536 18.9057C21.1653 19.879 20.6635 20.6554 20.245 21.4697C20.1011 21.7481 20.0291 22.053 19.9893 22.3617C19.5955 24.4163 16.9765 24.0338 15.541 23.2593C15.382 23.1741 15.2191 23.0983 15.0487 23.0358C13.9901 22.6419 12.8709 22.3806 11.7707 22.0738C11.7082 22.0606 11.6722 22.142 11.7233 22.1799C12.5111 22.5321 13.2629 23.2025 14.028 23.4543C14.882 23.6626 17.4158 26.2873 16.3345 27.0258C15.5865 27.717 14.8688 28.3988 13.8519 28.3155C13.6511 28.3079 13.0395 28.3041 13.3709 28.448C15.2532 29.2244 17.2889 28.8343 19.4174 28.4783C21.9872 28.0617 23.4094 25.9161 24.3714 23.5812C25.0361 21.9716 27.71 20.7691 28.9882 20.2729C29.2836 20.1574 29.5753 20.4433 29.4825 20.7539C28.0016 25.6453 22.9227 30.4459 15.3365 29.8834C7.64999 29.3134 2.64304 23.4827 2.50859 16.1106C1.98782 -0.126035 25.3069 -2.91924 29.4749 11.115C29.5658 11.4218 29.2779 11.7039 28.9844 11.5941C22.2997 9.44473 25.2292 5.34676 19.6011 3.5004C19.3133 3.41897 18.1051 3.05538 17.1848 3.12734C17.0219 3.1406 17.0257 3.17847 17.0787 3.33944C17.1412 3.52881 17.2662 4.06472 17.2624 4.131C17.2378 4.4624 17.1905 4.84493 16.6356 5.26722C16.5939 5.29942 16.6072 5.3657 16.6583 5.37706C18.1846 5.63271 20.3132 6.45079 19.1845 8.3407C17.8362 10.3537 15.0203 10.206 13.0849 11.4407C13.0792 11.4445 13.0717 11.4483 13.066 11.4521C12.1816 11.8971 11.2461 11.9331 10.3239 12.0808C9.2388 12.2512 8.23703 12.6489 7.27125 13.1374C7.04968 13.2492 7.14816 13.5863 7.39623 13.5597C10.6629 13.2208 10.8163 13.6487 14.365 14.6657"/>
</mask>
<path d="M16.094 15.069C18.321 15.7053 20.8377 16.3832 21.0536 18.9057C21.1653 19.879 20.6635 20.6554 20.245 21.4697C20.1011 21.7481 20.0291 22.053 19.9893 22.3617C19.5955 24.4163 16.9765 24.0338 15.541 23.2593C15.382 23.1741 15.2191 23.0983 15.0487 23.0358C13.9901 22.6419 12.8709 22.3806 11.7707 22.0738C11.7082 22.0606 11.6722 22.142 11.7233 22.1799C12.5111 22.5321 13.2629 23.2025 14.028 23.4543C14.882 23.6626 17.4158 26.2873 16.3345 27.0258C15.5865 27.717 14.8688 28.3988 13.8519 28.3155C13.6511 28.3079 13.0395 28.3041 13.3709 28.448C15.2532 29.2244 17.2889 28.8343 19.4174 28.4783C21.9872 28.0617 23.4094 25.9161 24.3714 23.5812C25.0361 21.9716 27.71 20.7691 28.9882 20.2729C29.2836 20.1574 29.5753 20.4433 29.4825 20.7539C28.0016 25.6453 22.9227 30.4459 15.3365 29.8834C7.64999 29.3134 2.64304 23.4827 2.50859 16.1106C1.98782 -0.126035 25.3069 -2.91924 29.4749 11.115C29.5658 11.4218 29.2779 11.7039 28.9844 11.5941C22.2997 9.44473 25.2292 5.34676 19.6011 3.5004C19.3133 3.41897 18.1051 3.05538 17.1848 3.12734C17.0219 3.1406 17.0257 3.17847 17.0787 3.33944C17.1412 3.52881 17.2662 4.06472 17.2624 4.131C17.2378 4.4624 17.1905 4.84493 16.6356 5.26722C16.5939 5.29942 16.6072 5.3657 16.6583 5.37706C18.1846 5.63271 20.3132 6.45079 19.1845 8.3407C17.8362 10.3537 15.0203 10.206 13.0849 11.4407C13.0792 11.4445 13.0717 11.4483 13.066 11.4521C12.1816 11.8971 11.2461 11.9331 10.3239 12.0808C9.2388 12.2512 8.23703 12.6489 7.27125 13.1374C7.04968 13.2492 7.14816 13.5863 7.39623 13.5597C10.6629 13.2208 10.8163 13.6487 14.365 14.6657" fill="#F5E9D9"/>
<path d="M21.0536 18.9057L19.6904 19.0223L19.6921 19.042L19.6943 19.0617L21.0536 18.9057ZM20.245 21.4697L21.4604 22.0981L21.4619 22.0951L20.245 21.4697ZM19.9893 22.3617L21.3331 22.6193L21.341 22.5781L21.3463 22.5365L19.9893 22.3617ZM15.541 23.2593L16.1907 22.0552L16.1871 22.0532L15.541 23.2593ZM15.0487 23.0358L14.5715 24.3181L14.5777 24.3204L15.0487 23.0358ZM11.7707 22.0738L12.1382 20.7559L12.0967 20.7443L12.0546 20.7354L11.7707 22.0738ZM11.7233 22.1799L10.9089 23.2793L11.0288 23.368L11.1649 23.4289L11.7233 22.1799ZM14.028 23.4543L13.6001 24.7539L13.6514 24.7708L13.7038 24.7836L14.028 23.4543ZM16.3345 27.0258L15.5628 25.896L15.4798 25.9527L15.4059 26.021L16.3345 27.0258ZM13.8519 28.3155L13.9636 26.9518L13.9336 26.9494L13.9035 26.9482L13.8519 28.3155ZM13.3709 28.448L12.8258 29.703L12.8375 29.708L12.8491 29.7128L13.3709 28.448ZM19.4174 28.4783L19.1985 27.1277L19.1917 27.1289L19.4174 28.4783ZM24.3714 23.5812L23.1067 23.059L23.1063 23.06L24.3714 23.5812ZM28.9882 20.2729L29.4833 21.5484L29.4865 21.5472L28.9882 20.2729ZM29.4825 20.7539L30.792 21.1504L30.7934 21.1456L29.4825 20.7539ZM15.3365 29.8834L15.2353 31.2479L15.2354 31.2479L15.3365 29.8834ZM2.50859 16.1106L3.87656 16.0856L3.87639 16.0761L3.87608 16.0667L2.50859 16.1106ZM29.4749 11.115L30.7867 10.7263L30.7865 10.7254L29.4749 11.115ZM28.9844 11.5941L29.4639 10.3127L29.4338 10.3014L29.4032 10.2916L28.9844 11.5941ZM19.6011 3.5004L20.0276 2.20037L20.0008 2.19156L19.9736 2.18387L19.6011 3.5004ZM17.1848 3.12734L17.0781 1.7633L17.0738 1.76365L17.1848 3.12734ZM17.0787 3.33944L15.7792 3.76751L15.7794 3.7682L17.0787 3.33944ZM17.2624 4.131L18.6269 4.23236L18.6277 4.22072L18.6284 4.20906L17.2624 4.131ZM16.6356 5.26722L15.8069 4.17846L15.799 4.18459L16.6356 5.26722ZM16.6583 5.37706L16.3615 6.71268L16.3967 6.7205L16.4323 6.72646L16.6583 5.37706ZM19.1845 8.3407L20.3213 9.10211L20.341 9.07265L20.3592 9.04221L19.1845 8.3407ZM13.0849 11.4407L12.349 10.2872L12.3374 10.2946L12.326 10.3023L13.0849 11.4407ZM13.066 11.4521L13.681 12.6742L13.7555 12.6367L13.8249 12.5905L13.066 11.4521ZM10.3239 12.0808L10.5362 13.4324L10.5403 13.4317L10.3239 12.0808ZM7.27125 13.1374L7.8873 14.3591L7.88886 14.3583L7.27125 13.1374ZM7.39623 13.5597L7.25501 12.1988L7.25084 12.1993L7.39623 13.5597ZM16.094 15.069L15.7181 16.3846C16.8868 16.7185 17.875 17.001 18.6207 17.4513C19.2847 17.8522 19.6291 18.3059 19.6904 19.0223L21.0536 18.9057L22.4168 18.789C22.2622 16.983 21.2403 15.8365 20.0352 15.1088C18.9119 14.4305 17.5282 14.0558 16.4699 13.7535L16.094 15.069ZM21.0536 18.9057L19.6943 19.0617C19.7468 19.5185 19.5443 19.84 19.0281 20.8443L20.245 21.4697L21.4619 22.0951C21.7827 21.4708 22.5839 20.2396 22.4129 18.7496L21.0536 18.9057ZM20.245 21.4697L19.0296 20.8414C18.7853 21.314 18.6833 21.7916 18.6324 22.1868L19.9893 22.3617L21.3463 22.5365C21.3749 22.3144 21.4169 22.1822 21.4604 22.0981L20.245 21.4697ZM19.9893 22.3617L18.6456 22.1041C18.6062 22.3099 18.5397 22.3602 18.5124 22.3806C18.4581 22.4211 18.3244 22.4873 18.0563 22.5068C17.4909 22.548 16.7364 22.3496 16.1907 22.0552L15.541 23.2593L14.8913 24.4634C15.7811 24.9434 17.0538 25.3236 18.2552 25.236C18.8705 25.1911 19.5552 25.0162 20.1476 24.5747C20.7669 24.1131 21.1756 23.4408 21.3331 22.6193L19.9893 22.3617ZM15.541 23.2593L16.1871 22.0532C15.983 21.9439 15.7613 21.8398 15.5197 21.7512L15.0487 23.0358L14.5777 24.3204C14.677 24.3568 14.7809 24.4042 14.8949 24.4653L15.541 23.2593ZM15.0487 23.0358L15.5258 21.7535C14.3951 21.3328 13.1623 21.0414 12.1382 20.7559L11.7707 22.0738L11.4032 23.3917C12.5796 23.7198 13.5851 23.9511 14.5715 24.3181L15.0487 23.0358ZM11.7707 22.0738L12.0546 20.7354C10.5117 20.4081 9.7115 22.3923 10.9089 23.2793L11.7233 22.1799L12.5377 21.0804C13.6329 21.8917 12.9047 23.713 11.4868 23.4122L11.7707 22.0738ZM11.7233 22.1799L11.1649 23.4289C11.4438 23.5536 11.7248 23.7387 12.1497 24.0091C12.5197 24.2445 13.0333 24.5673 13.6001 24.7539L14.028 23.4543L14.4558 22.1547C14.2576 22.0895 14.0128 21.9512 13.6187 21.7004C13.2794 21.4845 12.7906 21.1583 12.2818 20.9308L11.7233 22.1799ZM14.028 23.4543L13.7038 24.7836C13.602 24.7587 13.5902 24.7342 13.691 24.7973C13.7723 24.8481 13.8848 24.9296 14.0195 25.043C14.2901 25.2709 14.5866 25.5735 14.8288 25.8835C15.088 26.2154 15.2045 26.4532 15.2328 26.5542C15.2448 26.5972 15.2122 26.5173 15.2468 26.3651C15.2903 26.174 15.411 25.9997 15.5628 25.896L16.3345 27.0258L17.1062 28.1557C17.5283 27.8673 17.8063 27.4495 17.9149 26.9727C18.0147 26.5347 17.9548 26.127 17.868 25.8168C17.6986 25.2115 17.331 24.6416 16.9852 24.199C16.6224 23.7345 16.1928 23.2957 15.7819 22.9498C15.5759 22.7763 15.3588 22.6128 15.1422 22.4774C14.9452 22.3541 14.6675 22.202 14.3522 22.1251L14.028 23.4543ZM16.3345 27.0258L15.4059 26.021C15.0029 26.3934 14.7399 26.6339 14.4764 26.7962C14.2528 26.934 14.1074 26.9636 13.9636 26.9518L13.8519 28.3155L13.7401 29.6791C15.4631 29.8203 16.6334 28.6125 17.263 28.0307L16.3345 27.0258ZM13.8519 28.3155L13.9035 26.9482C13.7965 26.9442 13.5019 26.9366 13.2517 26.9661C13.1861 26.9739 13.0725 26.9896 12.9461 27.026C12.883 27.0442 12.7791 27.0779 12.662 27.1391C12.5604 27.1921 12.3394 27.3213 12.1582 27.5793C11.938 27.893 11.8392 28.3141 11.9544 28.7394C12.0496 29.0911 12.2547 29.3074 12.3535 29.3999C12.5479 29.5817 12.7566 29.6729 12.8258 29.703L13.3709 28.448L13.9159 27.1931C13.927 27.1979 13.9589 27.2121 14.0023 27.2371C14.0397 27.2587 14.1261 27.3111 14.2228 27.4015C14.307 27.4803 14.5035 27.684 14.5956 28.024C14.7076 28.4376 14.611 28.8479 14.3977 29.1517C14.2235 29.3999 14.0142 29.52 13.9282 29.5649C13.8269 29.6178 13.7428 29.6442 13.7029 29.6557C13.6577 29.6687 13.6234 29.6754 13.6064 29.6785C13.5879 29.6818 13.5758 29.6833 13.5719 29.6837C13.5681 29.6842 13.5963 29.6815 13.6595 29.6809C13.7148 29.6803 13.7686 29.6815 13.8003 29.6827L13.8519 28.3155ZM13.3709 28.448L12.8491 29.7128C15.1668 30.6688 17.6363 30.1634 19.6432 29.8278L19.4174 28.4783L19.1917 27.1289C16.9416 27.5052 15.3396 27.7801 13.8926 27.1832L13.3709 28.448ZM19.4174 28.4783L19.6364 29.8289C22.9634 29.2895 24.6432 26.5131 25.6364 24.1024L24.3714 23.5812L23.1063 23.06C22.1756 25.3191 21.0109 26.8339 19.1985 27.1277L19.4174 28.4783ZM24.3714 23.5812L25.636 24.1034C25.7941 23.7204 26.3029 23.2092 27.1696 22.673C27.9795 22.1719 28.8805 21.7824 29.4833 21.5484L28.9882 20.2729L28.4931 18.9974C27.8177 19.2596 26.7426 19.7194 25.7298 20.346C24.7738 20.9375 23.6133 21.8323 23.1067 23.059L24.3714 23.5812ZM28.9882 20.2729L29.4865 21.5472C28.6087 21.8904 27.9728 21.0273 28.1715 20.3622L29.4825 20.7539L30.7934 21.1456C31.1777 19.8593 29.9585 18.4244 28.4899 18.9987L28.9882 20.2729ZM29.4825 20.7539L28.173 20.3575C26.8601 24.694 22.3262 29.0297 15.4377 28.519L15.3365 29.8834L15.2354 31.2479C23.5192 31.862 29.1431 26.5967 30.792 21.1504L29.4825 20.7539ZM15.3365 29.8834L15.4377 28.519C8.50308 28.0047 3.999 22.7993 3.87656 16.0856L2.50859 16.1106L1.14062 16.1355C1.28708 24.1662 6.79689 30.6221 15.2353 31.2479L15.3365 29.8834ZM2.50859 16.1106L3.87608 16.0667C3.6424 8.7807 8.69107 4.50419 14.4429 3.61329C20.2491 2.71394 26.326 5.31812 28.1633 11.5045L29.4749 11.115L30.7865 10.7254C28.4557 2.87761 20.7891 -0.138717 14.024 0.909135C7.20447 1.96543 0.854014 7.20382 1.14109 16.1544L2.50859 16.1106ZM29.4749 11.115L28.1631 11.5037C27.9612 10.8223 28.6088 9.99268 29.4639 10.3127L28.9844 11.5941L28.5049 12.8755C29.9471 13.4151 31.1704 12.0212 30.7867 10.7263L29.4749 11.115ZM28.9844 11.5941L29.4032 10.2916C27.8857 9.80361 27.0072 9.23657 26.4317 8.69013C25.8493 8.13718 25.4981 7.53462 25.1057 6.79351C24.7304 6.08443 24.2756 5.15187 23.5099 4.31696C22.7092 3.44387 21.6263 2.72482 20.0276 2.20037L19.6011 3.5004L19.1746 4.80043C20.39 5.19916 21.0514 5.68474 21.4932 6.16648C21.97 6.68639 22.2559 7.25885 22.6873 8.07373C23.1017 8.85657 23.6232 9.79691 24.5475 10.6745C25.4787 11.5587 26.7408 12.3099 28.5656 12.8966L28.9844 11.5941ZM19.6011 3.5004L19.9736 2.18387C19.7626 2.12419 18.2938 1.66825 17.0781 1.76331L17.1848 3.12734L17.2914 4.49138C17.5611 4.47029 17.9456 4.51339 18.3576 4.59714C18.7507 4.67702 19.0728 4.77284 19.2287 4.81693L19.6011 3.5004ZM17.1848 3.12734L17.0738 1.76365C17.0118 1.76869 16.827 1.78367 16.6228 1.85823C16.3782 1.94753 15.9846 2.17066 15.7845 2.65994C15.6208 3.06001 15.6892 3.41257 15.7083 3.508C15.7323 3.62857 15.7695 3.73814 15.7792 3.76751L17.0787 3.33944L18.3782 2.91136C18.3614 2.86025 18.3782 2.90472 18.3918 2.97251C18.4003 3.01515 18.468 3.32723 18.3171 3.69605C18.1297 4.15409 17.7624 4.35521 17.5613 4.42865C17.4693 4.46223 17.3958 4.4765 17.3609 4.48244C17.3237 4.48878 17.299 4.49077 17.2958 4.49103L17.1848 3.12734ZM17.0787 3.33944L15.7794 3.7682C15.7793 3.76784 15.7825 3.77764 15.789 3.80056C15.7952 3.82203 15.8026 3.8491 15.8109 3.881C15.8277 3.94502 15.846 4.01925 15.8628 4.09125C15.8798 4.16458 15.8931 4.22643 15.9011 4.26722C15.9053 4.28877 15.9059 4.29383 15.9048 4.28696C15.9044 4.28385 15.9019 4.26739 15.8996 4.24257C15.8984 4.22981 15.8966 4.20881 15.8955 4.18216C15.8944 4.15837 15.8931 4.112 15.8964 4.05295L17.2624 4.131L18.6284 4.20906C18.6381 4.03885 18.6119 3.88722 18.6115 3.8845C18.6041 3.83489 18.5951 3.78573 18.5871 3.74476C18.5707 3.66051 18.5496 3.56412 18.5281 3.4715C18.4885 3.30127 18.43 3.06835 18.378 2.91067L17.0787 3.33944ZM17.2624 4.131L15.898 4.02964C15.8873 4.17356 15.8796 4.1498 15.8973 4.10993C15.9066 4.08907 15.9141 4.08099 15.9088 4.08745C15.9018 4.09583 15.874 4.12749 15.807 4.17849L16.6356 5.26722L17.4642 6.35596C17.8925 6.02997 18.2054 5.65487 18.3984 5.22013C18.5846 4.80057 18.6129 4.41984 18.6269 4.23236L17.2624 4.131ZM16.6356 5.26722L15.799 4.18459C14.9015 4.87812 15.1027 6.43294 16.3615 6.71268L16.6583 5.37706L16.9551 4.04144C18.1117 4.29845 18.2864 5.72071 17.4722 6.34986L16.6356 5.26722ZM16.6583 5.37706L16.4323 6.72646C16.7529 6.78015 17.0904 6.8613 17.3939 6.97013C17.7064 7.08218 17.9252 7.20307 18.0543 7.30794C18.1762 7.40696 18.1475 7.43092 18.1356 7.36737C18.1227 7.29826 18.1733 7.36549 18.0098 7.63919L19.1845 8.3407L20.3592 9.04221C20.7601 8.37096 20.9678 7.62721 20.8255 6.86518C20.6843 6.10872 20.2397 5.55781 19.7798 5.18413C18.915 4.48153 17.7101 4.16597 16.8843 4.02766L16.6583 5.37706ZM19.1845 8.3407L18.0478 7.57929C17.6436 8.18274 16.9897 8.53107 15.9248 8.88372C14.9896 9.1934 13.5078 9.54801 12.349 10.2872L13.0849 11.4407L13.8208 12.5941C14.5974 12.0987 15.4913 11.9098 16.785 11.4814C17.9489 11.096 19.3772 10.5117 20.3213 9.10211L19.1845 8.3407ZM13.0849 11.4407L12.326 10.3023C12.3396 10.2932 12.3515 10.2857 12.3606 10.28C12.3698 10.2743 12.3774 10.2697 12.3828 10.2665C12.3882 10.2633 12.3924 10.2609 12.3945 10.2597C12.3964 10.2586 12.3978 10.2577 12.3966 10.2584C12.3962 10.2587 12.3931 10.2605 12.3895 10.2625C12.3858 10.2646 12.38 10.268 12.373 10.2722C12.366 10.2763 12.3568 10.2819 12.3461 10.2885C12.3354 10.2951 12.3221 10.3036 12.307 10.3136L13.066 11.4521L13.8249 12.5905C13.8112 12.5996 13.7994 12.6071 13.7903 12.6128C13.7811 12.6185 13.7734 12.6231 13.768 12.6263C13.7626 12.6295 13.7585 12.6319 13.7564 12.6331C13.7545 12.6342 13.753 12.635 13.7543 12.6343C13.7547 12.6341 13.7578 12.6323 13.7613 12.6302C13.7651 12.6281 13.7709 12.6247 13.7779 12.6206C13.7849 12.6164 13.7941 12.6109 13.8048 12.6042C13.8155 12.5976 13.8288 12.5892 13.8438 12.5791L13.0849 11.4407ZM13.066 11.4521L12.451 10.2299C11.8169 10.5489 11.239 10.5485 10.1075 10.7298L10.3239 12.0808L10.5403 13.4317C11.2532 13.3176 12.5463 13.2452 13.681 12.6742L13.066 11.4521ZM10.3239 12.0808L10.1116 10.7291C8.83246 10.93 7.68811 11.3933 6.65363 11.9166L7.27125 13.1374L7.88886 14.3583C8.78596 13.9045 9.64515 13.5723 10.5362 13.4324L10.3239 12.0808ZM7.27125 13.1374L6.6552 11.9158C5.08007 12.7101 5.77452 15.109 7.54162 14.9202L7.39623 13.5597L7.25084 12.1993C8.52179 12.0635 9.0193 13.7883 7.8873 14.3591L7.27125 13.1374ZM7.39623 13.5597L7.53745 14.9206C9.10684 14.7578 9.79869 14.7936 10.4868 14.9418C10.8616 15.0225 11.2591 15.1422 11.8273 15.3212C12.3851 15.4969 13.0798 15.7206 13.9882 15.9809L14.365 14.6657L14.7419 13.3504C13.8759 13.1022 13.2207 12.8911 12.6495 12.7112C12.0888 12.5345 11.5783 12.3777 11.0629 12.2667C9.97042 12.0314 8.95226 12.0227 7.25501 12.1988L7.39623 13.5597Z" fill="#F5E9D9" mask="url(#path-2-inside-1_2046_2)"/>
</svg>
